<svg height="300" id="ob_loader" version="1.1" viewBox="0 0 750 100" width="700" xml:space="preserve" xmlns="http://www.w3.org/2000/svg" xmlns:rdf="http://www.w3.org/1999/02/22-rdf-syntax-ns#" xmlns:svg="http://www.w3.org/2000/svg">
    <metadata id="metadata8">
        <rdf:RDF>
            <cc:Work rdf:about="" xmlns:cc="http://creativecommons.org/ns#">
                <dc:format xmlns:dc="http://purl.org/dc/elements/1.1/">image/svg+xml</dc:format>
                <dc:type rdf:resource="http://purl.org/dc/dcmitype/StillImage" xmlns:dc="http://purl.org/dc/elements/1.1/"/>
            </cc:Work>
        </rdf:RDF>
    </metadata>
    <defs id="defs6">
        <style>
            .UpDownAnimation {
                animation-name: UpAndDown;
                animation-duration: 2.5s;
                animation-iteration-count: infinite;
                transform-origin: 50% 50%;
            }
            @keyframes UpAndDown {
                0%  { transform: translate(0, 0px); }
                30%  { transform: translate(0, 300px); }
                70%  { transform: translate(0, 0px); }
            }
        </style>
    </defs>
    <g id="g10" transform="matrix(1.3333333,0,0,-1.3333333,0,535.37333)">
        <g id="g12" transform="scale(0.1)">
            <path d="m 696.355,3571.95 c 0,0.01 -13.214,-34.09 -35.394,-78.13 0,0 -54.606,53.13 -62.938,183.97 -4.578,71.84 37.5,206.66 119.165,174.16 85.41,-33.99 -20.833,-280 -20.833,-280 z m -91.73,-174.12 c -37.676,-53.91 -83.57,-99.03 -130.988,-97.39 -147.36,5.08 -49.782,300.68 17.851,414.17 0.106,0.17 -4.3,-12.66 12.367,-110.99 22.079,-130.21 106.399,-197.33 106.399,-197.33 z m 1523.155,85.62 c -12.48,-22.67 -29.15,-50.9 -57.26,-80.66 -42.5,-45 -147.5,-115 -88.75,35 58.75,150 76.25,166.25 75,233.75 -1.25,67.5 -77.5,73.75 -130,56.25 -23.02,-7.68 -60.48,-29.06 -95.27,-50.65 l 17.31,46.9 H 1715.06 L 1630,3493.63 c -35.34,-35.73 -69.95,-66.97 -89.48,-74.59 -21.45,-8.37 -36.07,-10.57 -47.43,-9.61 l 116.97,314.61 h -133.75 l -80.68,-216.54 c -8.9,-22.08 -21.92,-60.39 -55.7,-106.77 -13.68,-17.18 -29.3,-31.27 -46.07,-36.28 -47.09,-14.06 -44.96,11.13 -43.68,17.68 l 127.38,341.91 h -133.75 l -17.56,-47.13 c -16.72,-42.23 -79.28,-196.8 -121.56,-254.12 -34.04,-46.16 -56.67,-67.49 -76.67,-68.33 -16.56,-0.69 -18.81,26 -14.37,47.05 l 120.16,322.53 h -133.75 l -52.662,-141.37 c -20.05,-46.64 -45.125,-95.96 -69.804,-120.18 -46.293,-45.44 -89.551,-42.69 -101.403,-40.87 18.758,34.21 83.614,155.68 96.368,270.38 31.117,279.81 -97.641,313.05 -183.207,301.98 -60.743,-7.85 -102.028,-38.93 -129.821,-73.61 -48.883,-18.6 -121.148,-67.8 -199.343,-195.15 -141.598,-230.59 -130.864,-532.51 93.617,-532.51 125.558,0 217.656,83.1 276.433,161.08 71.215,-10.81 127.071,16.02 148.168,28.35 l -0.383,-1.02 c 0,0 -21.66,-90.82 71.668,-116.66 46.028,-12.75 97.949,4.79 129.079,26.58 32,22.39 46.18,48.32 46.18,48.32 0,0 -5.26,-74.91 104.74,-74.91 85.58,0 163.07,61.52 193.26,88.85 10.52,-3.17 17.57,-4.68 17.57,-4.68 l -0.04,0.45 c 13.37,-2.67 31.73,-4.72 52.54,-2.53 31.51,3.3 62.56,12.09 91.8,24.69 l -36.8,-99.69 h 133.75 l 107.25,290.53 c 50.09,56.15 92.57,73.07 115.25,53.22 30,-26.25 -97.5,-205 -70,-283.75 27.5,-78.75 122.5,-91.25 221.25,-22.5 51.23,35.66 84.67,79.25 105.56,112.58 21.11,33.67 -2.31,61.83 -33.3,61.83" id="own" style="fill:#231f20;fill-opacity:1;fill-rule:nonzero;stroke:none"/>
            
            <path class="UpDownAnimation" d="m 2914.74,3559.08 c -5.35,22.24 -13.81,42.11 -25.33,59.56 -11.54,17.45 -26.35,31.68 -44.36,42.66 -18.02,10.98 -39.7,16.48 -65.04,16.48 -28.17,0 -51.96,-5.5 -71.38,-16.48 -19.44,-10.98 -35.21,-25.21 -47.32,-42.66 -12.11,-17.45 -20.84,-37.32 -26.18,-59.56 -5.36,-22.25 -8.03,-44.63 -8.03,-67.16 0,-22.53 2.67,-44.92 8.03,-67.16 5.34,-22.25 14.07,-42.1 26.18,-59.56 12.11,-17.46 27.88,-31.68 47.32,-42.65 19.42,-10.98 43.21,-16.49 71.38,-16.49 25.34,0 47.02,5.51 65.04,16.49 18.01,10.97 32.82,25.19 44.36,42.65 11.52,17.46 19.98,37.31 25.33,59.56 5.35,22.24 8.04,44.63 8.04,67.16 0,22.53 -2.69,44.91 -8.04,67.16 z m -287.64,318.06 v -250.05 h 1.69 c 5.63,15.75 13.65,29.57 24.08,41.39 10.41,11.83 22.38,21.83 35.9,30 13.52,8.15 28.15,14.21 43.93,18.16 15.76,3.93 31.52,5.91 47.31,5.91 33.23,0 62.09,-6.19 86.59,-18.59 24.5,-12.39 44.9,-29.14 61.24,-50.25 16.33,-21.12 28.42,-45.63 36.33,-73.51 7.88,-27.88 11.84,-57.31 11.84,-88.28 0,-30.97 -3.96,-60.4 -11.84,-88.28 -7.91,-27.88 -20,-52.38 -36.33,-73.51 -16.34,-21.11 -36.74,-37.72 -61.24,-49.82 -24.5,-12.11 -53.36,-18.18 -86.59,-18.18 -35.47,0 -67.15,8.17 -95.04,24.51 -27.88,16.34 -48.02,39.7 -60.39,70.13 h -1.69 v -82.81 h -49.01 v 603.18 h 53.22" id="letter_b" style="fill:#231f20;fill-opacity:1;fill-rule:nonzero;stroke:none; animation-delay: -1.5s" xmlns="http://www.w3.org/2000/svg"/>
            
            <path class="UpDownAnimation" d="m 3310.19,3512.2 c -3.38,-6.21 -9.86,-10.7 -19.43,-13.52 -9.59,-2.82 -18.03,-4.8 -25.35,-5.91 -22.52,-3.95 -45.77,-7.48 -69.69,-10.57 -23.95,-3.09 -45.76,-7.75 -65.47,-13.92 -19.73,-6.21 -35.9,-15.09 -48.58,-26.62 -12.67,-11.55 -19,-28.02 -19,-49.42 0,-13.52 2.66,-25.49 8.01,-35.9 5.35,-10.45 12.54,-19.43 21.56,-27.05 9.01,-7.59 19.42,-13.38 31.25,-17.3 11.84,-3.95 23.93,-5.93 36.33,-5.93 20.27,0 39.71,3.09 58.28,9.3 18.59,6.18 34.77,15.21 48.57,27.04 13.79,11.81 24.79,26.18 32.95,43.08 8.17,16.9 12.25,36.03 12.25,57.45 v 69.27 z m -266.11,130.1 c 9,18.58 21.25,33.79 36.74,45.62 15.48,11.82 33.65,20.54 54.51,26.18 20.82,5.62 43.92,8.45 69.25,8.45 19.15,0 38.31,-1.83 57.45,-5.49 19.14,-3.67 36.32,-10.56 51.54,-20.7 15.21,-10.13 27.58,-24.37 37.17,-42.65 9.57,-18.31 14.35,-42.12 14.35,-71.4 v -231.47 c 0,-21.41 10.41,-32.11 31.27,-32.11 6.19,0 11.82,1.13 16.9,3.4 v -44.79 c -6.21,-1.13 -11.7,-1.97 -16.47,-2.54 -4.8,-0.55 -10.86,-0.84 -18.18,-0.84 -13.52,0 -24.38,1.83 -32.52,5.5 -8.17,3.65 -14.51,8.86 -19.01,15.63 -4.51,6.76 -7.48,14.78 -8.86,24.07 -1.43,9.29 -2.11,19.58 -2.11,30.84 h -1.7 c -9.59,-14.09 -19.3,-26.61 -29.14,-37.59 -9.86,-10.98 -20.84,-20.15 -32.95,-27.47 -12.11,-7.33 -25.92,-12.95 -41.39,-16.89 -15.51,-3.92 -33.94,-5.92 -55.33,-5.92 -20.27,0 -39.3,2.42 -57.03,7.19 -17.75,4.78 -33.24,12.38 -46.47,22.82 -13.24,10.41 -23.65,23.64 -31.27,39.69 -7.57,16.05 -11.38,35.07 -11.38,57.03 0,30.41 6.76,54.19 20.27,71.38 13.52,17.17 31.39,30.28 53.63,39.29 22.25,8.99 47.31,15.34 75.2,19.01 27.87,3.64 56.17,7.17 84.9,10.55 11.25,1.12 21.12,2.55 29.57,4.24 8.44,1.68 15.49,4.63 21.12,8.87 5.62,4.21 10,9.96 13.08,17.3 3.09,7.31 4.65,16.9 4.65,28.74 0,18.01 -2.95,32.79 -8.87,44.35 -5.92,11.53 -14.08,20.7 -24.49,27.44 -10.43,6.76 -22.54,11.4 -36.33,13.95 -13.81,2.53 -28.59,3.8 -44.35,3.8 -33.79,0 -61.39,-8.04 -82.78,-24.07 -21.42,-16.07 -32.67,-41.83 -33.8,-77.31 h -53.23 c 1.7,25.35 7.03,47.32 16.06,65.9" id="letter_a" style="fill:#231f20;fill-opacity:1;fill-rule:nonzero;stroke:none; animation-delay: -1.25s" xmlns="http://www.w3.org/2000/svg"/>
            <path class="UpDownAnimation" d="m 3711.28,3649.9 c -19.7,18.58 -47.3,27.88 -82.79,27.88 -25.33,0 -47.6,-5.36 -66.74,-16.05 -19.14,-10.72 -35.06,-24.79 -47.71,-42.24 -12.7,-17.46 -22.27,-37.33 -28.73,-59.57 -6.49,-22.25 -9.73,-44.91 -9.73,-68 0,-23.1 3.24,-45.75 9.73,-68.01 6.46,-22.25 16.03,-42.11 28.73,-59.56 12.65,-17.45 28.57,-31.54 47.71,-42.22 19.14,-10.72 41.41,-16.07 66.74,-16.07 16.33,0 31.82,3.09 46.47,9.3 14.64,6.18 27.59,14.77 38.86,25.76 11.25,10.99 20.55,24.08 27.87,39.29 7.31,15.2 11.84,31.81 13.52,49.84 h 53.22 c -7.32,-52.95 -26.76,-94.19 -58.28,-123.76 -31.56,-29.57 -72.09,-44.36 -121.66,-44.36 -33.22,0 -62.66,6.07 -88.28,18.18 -25.63,12.1 -47.17,28.57 -64.63,49.4 -17.46,20.84 -30.7,45.21 -39.69,73.09 -9.02,27.87 -13.53,57.58 -13.53,89.12 0,31.54 4.51,61.25 13.53,89.12 8.99,27.89 22.23,52.24 39.69,73.09 17.46,20.82 39,37.44 64.63,49.83 25.62,12.4 55.06,18.59 88.28,18.59 46.74,0 86.31,-12.39 118.69,-37.16 32.39,-24.8 51.66,-62.25 57.87,-112.37 h -53.2 c -7.34,32.66 -20.86,58.3 -40.57,76.88" id="letter_c" style="fill:#231f20;fill-opacity:1;fill-rule:nonzero;stroke:none; animation-delay: -1s"/>
            <path class="UpDownAnimation" d="m 3913.61,3877.14 v -378.46 l 241.6,211.2 h 70.98 l -185.86,-161.36 198.53,-274.56 h -66.74 l -172.34,237.4 -86.17,-71.82 v -165.58 h -53.22 v 603.18 h 53.22" id="letter_k" style="fill:#231f20;fill-opacity:1;fill-rule:nonzero;stroke:none; animation-delay: -.75s"/>
            <path class="UpDownAnimation" d="m 4565.7,3273.96 v 78.58 h -1.68 c -14.1,-29.3 -34.51,-51.69 -61.25,-67.17 -26.76,-15.49 -56.47,-23.24 -89.12,-23.24 -27.62,0 -51.12,3.82 -70.55,11.4 -19.43,7.62 -35.21,18.46 -47.3,32.53 -12.13,14.07 -20.98,31.27 -26.63,51.55 -5.62,20.28 -8.43,43.34 -8.43,69.26 v 283.01 h 53.22 v -283.85 c 1.11,-39.44 10.27,-69.26 27.46,-89.55 17.15,-20.27 46.88,-30.42 89.12,-30.42 23.07,0 42.79,4.93 59.12,14.8 16.33,9.84 29.85,22.94 40.57,39.27 10.68,16.32 18.57,35.06 23.65,56.17 5.06,21.14 7.6,42.67 7.6,64.63 v 228.95 h 53.22 v -435.92 h -49" id="letter_u" style="fill:#231f20;fill-opacity:1;fill-rule:nonzero;stroke:none; animation-delay: -.5s"/>
            <path class="UpDownAnimation" d="m 5032.26,3559.08 c -5.35,22.24 -13.81,42.11 -25.33,59.56 -11.56,17.45 -26.35,31.68 -44.36,42.66 -18.02,10.98 -39.7,16.48 -65.06,16.48 -29.27,0 -53.78,-5.07 -73.47,-15.21 -19.73,-10.13 -35.49,-23.65 -47.33,-40.54 -11.83,-16.92 -20.13,-36.62 -24.92,-59.14 -4.78,-22.54 -7.17,-46.19 -7.17,-70.97 0,-22.53 2.66,-44.92 8.03,-67.16 5.33,-22.25 14.06,-42.1 26.19,-59.56 12.09,-17.46 27.87,-31.68 47.31,-42.65 19.41,-10.98 43.2,-16.49 71.36,-16.49 25.36,0 47.04,5.51 65.06,16.49 18.01,10.97 32.8,25.19 44.36,42.65 11.52,17.46 19.98,37.31 25.33,59.56 5.35,22.24 8.03,44.63 8.03,67.16 0,22.53 -2.68,44.91 -8.03,67.16 z m -291.87,150.8 v -82.79 h 1.69 c 12.39,30.41 32.52,53.92 60.4,70.54 27.89,16.6 59.57,24.92 95.03,24.92 33.25,0 62.11,-6.19 86.61,-18.59 24.49,-12.39 44.9,-29.14 61.25,-50.25 16.32,-21.12 28.41,-45.63 36.32,-73.51 7.89,-27.88 11.82,-57.31 11.82,-88.28 0,-30.97 -3.93,-60.4 -11.82,-88.28 -7.91,-27.88 -20,-52.38 -36.32,-73.51 -16.35,-21.11 -36.76,-37.72 -61.25,-49.82 -24.5,-12.11 -53.36,-18.18 -86.61,-18.18 -15.76,0 -31.52,2 -47.28,5.92 -15.78,3.94 -30.43,9.85 -43.95,17.74 -13.51,7.89 -25.48,17.74 -35.89,29.57 -10.43,11.82 -18.46,25.61 -24.09,41.41 h -1.68 v -243.31 h -53.22 v 596.42 h 48.99" id="letter_p" style="fill:#231f20;fill-opacity:1;fill-rule:nonzero;stroke:none; animation-delay: -.25s"/>

            <path d="m 2251.41,3562.54 c 72.83,0 83.06,47.48 83.06,90.09 0,34.08 -4.09,68.16 -8.19,102.15 -4.09,34.08 -8.22,66.97 -8.22,101.08 0,111.96 61.55,159.43 148.76,159.43 h 21.54 v -66.98 h -18.46 c -60.55,0 -81.06,-38.96 -81.06,-104.63 0,-27.95 3.09,-57.2 7.19,-86.42 4.09,-30.44 7.18,-59.65 7.18,-92.44 1.04,-77.9 -27.69,-116.84 -73.87,-131.49 v -2.4 c 46.18,-13.38 74.91,-54.79 73.87,-132.67 0,-32.9 -3.09,-63.31 -7.18,-92.45 -4.1,-30.43 -7.19,-58.48 -7.19,-87.71 0,-68.08 23.6,-105.83 81.06,-105.83 h 18.46 v -66.98 h -21.54 c -85.16,0 -148.76,43.9 -148.76,166.76 0,32.92 4.13,66.89 8.22,99.79 4.1,32.89 8.19,65.71 8.19,98.61 0,37.75 -10.23,90.07 -83.06,90.07 v 62.02" id="left_bracket" style="fill:#231f20;fill-opacity:1;fill-rule:nonzero;stroke:none"/>
            <path d="m 5361.86,3500.52 c -72.83,0 -83.11,-52.32 -83.11,-90.07 0,-32.9 4.14,-65.72 8.24,-98.61 4.09,-32.9 8.18,-66.87 8.18,-99.79 0,-122.86 -64.61,-166.76 -148.71,-166.76 h -21.55 v 66.98 h 17.45 c 57.42,1.2 82.07,37.75 82.07,105.83 0,29.23 -4.14,57.28 -7.19,87.71 -4.13,29.14 -8.22,59.55 -8.22,92.45 0,77.88 28.73,119.29 73.87,132.67 v 2.4 c -45.14,14.65 -73.87,53.59 -73.87,131.49 0,32.79 4.09,62 8.22,92.44 3.05,29.22 7.19,58.47 7.19,86.42 0,65.67 -21.55,103.44 -81.07,104.63 h -18.45 v 66.98 h 20.5 c 87.2,0 149.76,-47.47 149.76,-159.43 0,-34.11 -4.09,-67 -8.18,-101.08 -4.1,-33.99 -8.24,-68.07 -8.24,-102.15 0,-42.61 10.28,-90.09 83.11,-90.09 v -62.02" id="right_bracket" style="fill:#231f20;fill-opacity:1;fill-rule:nonzero;stroke:none"/>
        </g>
    </g>
</svg>