<?xml version="1.0" encoding="utf-8"?>
<svg id="ob-spinner-s" version="1.1" viewBox="0 0 311 273" x="0px" y="0px" xml:space="preserve" xmlns="http://www.w3.org/2000/svg" xmlns:xlink="http://www.w3.org/1999/xlink">
	<style>
	    .horizontalSpin {
	        animation-name: hSpin;
	        animation-duration: 2s;
	        animation-iteration-count: infinite;
	        animation-timing-function: linear;
	        transform-origin: 50% 50%;
	    }
	    @keyframes hSpin {
	        from { transform: rotate(0); }
	        to   { transform: rotateX(360deg); }
	    }
    </style>
	<g>
		<path class="horizontalSpin" d="
			M 277.9 105.2 
			c 0 -8.8 1 -17.6 2.1 -26.4 
			c 1 -8.8 2.1 -17.4 2.1 -26.2 
			c 0 -29 -16.1 -41.2 -38.9 -41.2 
			H 136 
			l -68.6 -1.2 
			c -22.6 0 -38.5 13.5 -38.5 42.5 
			c 0 8.8 1.1 17.4 2.1 26.2 
			c 1.1 8.8 2.1 17.6 2.1 26.5 
			c 0 11 -2.7 23.3 -21.5 23.3 
			v 16.1 
			c 18.9 0 21.5 13.6 21.5 23.3 
			c 0 8.5 -1.1 17 -2.1 25.6 
			c -1.1 8.5 -2.1 17.3 -2.1 25.9 
			c 0 31.8 16.5 43.2 38.5 43.2 
			H 73 
			l 165 0.1 
			h 5.4 
			c 22 0 38.6 -11.4 38.6 -43.3 
			c 0 -8.6 -1 -17.4 -2.1 -25.9 
			c -1 -8.6 -2.1 -17.1 -2.1 -25.4 
			c 0 -9.8 2.6 -23.6 21.5 -23.6 
			v -16.1 
			C 280.5 128.6 277.9 116.4 277.9 105.2
			z 
			M 220.2 184.2
			c -4.7 2.8 -17.2 8.8 -33.2 6.3 
			c -13.2 17.5 -33.8 36.1 -61.9 36.1 
			c -50.3 0 -52.7 -67.6 -21 -119.3 
			c 17.5 -28.5 33.7 -39.5 44.6 -43.7 
			c 6.2 -7.8 15.5 -14.7 29.1 -16.5 
			c 19.2 -2.5 48 5 41 67.6 
			c -2.9 25.7 -17.4 52.9 -21.6 60.6 
			l 0.2 -0.1 
			c -5.7 5 21.8 -0.9 22.7 -4.8 
			C 223.3 170.4 224.8 180.2 220.2 184.2
			z
			M136.3,134.6c-3.7-22-2.7-24.9-2.8-24.9c-15.1,25.4-37,91.6-4,92.8c10.6,0.4,20.9-9.7,29.3-21.8l1.3-1.9C160.1,178.8,141.3,163.7,136.3,134.6z
			M184.1,78.9c-18.3-7.3-27.7,22.9-26.7,39c1.9,29.3,14.1,41.2,14.1,41.2c5-9.9,7.9-17.5,7.9-17.5C179.4,141.7,203.2,86.6,184.1,78.9z"/>
	</g>
</svg>